# xmcd
#
# Track frame offsets:
#   150
#   14165
#   27978
#   41475
#   52278
#   63275
#   74953
#   94353
#   113220
#   125568
#   143853
#   158953
#   172780
#   186038
#   194758
#   206055
#   218053
#   229615
#   233665
#   245903
#   257623
#   276985
#   289415
#   300433
#   311533
#
# Disc length: 4335 seconds
#
# Revision: 0
# Processed by: cddbd v1.5PL3 Copyright (c) Steve Scherf et al.
# Submitted via: Media_Universe 3.0
#
DISCID=8a10ed19
DTITLE=The Yardbirds - Shapes Of Things - Disc 4/4
DYEAR=1991
DGENRE=R and B
TTITLE0=What Do You Want
TTITLE1=Jeff's Blues
TTITLE2=Like Jimmy Reed Again
TTITLE3=Someone To Love (Part One)
TTITLE4=Shapes Of Things
TTITLE5=Steeled Blues
TTITLE6=Someone To Love (Part Two)
TTITLE7=New York City Blues
TTITLE8=Stroll On
TTITLE9=For RSG
TTITLE10=Good Morning Schoolgirl (Backing Track)
TTITLE11=Good Morning Schoolgirl (Backing Track and Harp)
TTITLE12=Good Morning Schoolgirl (Master)
TTITLE13=Heartful Of Soul (Sitar Version)
TTITLE14=Heartful Of Soul (Master)
TTITLE15=Chris' Number
TTITLE16=Pounds And Stomps
TTITLE17=Got To Hurry (Take 1 Backing Track)
TTITLE18=Got To Hurry (Take 2 Backing Track)
TTITLE19=Got To Hurry (Master)
TTITLE20=I Wish You would (long Version)
TTITLE21=Questa Volta
TTITLE22=Puf...Bum
TTITLE23=Without You
TTITLE24=Climing Through
EXTD=
EXTT0=
EXTT1=
EXTT2=
EXTT3=
EXTT4=
EXTT5=
EXTT6=
EXTT7=
EXTT8=
EXTT9=
EXTT10=
EXTT11=
EXTT12=
EXTT13=
EXTT14=
EXTT15=
EXTT16=
EXTT17=
EXTT18=
EXTT19=
EXTT20=
EXTT21=
EXTT22=
EXTT23=
EXTT24=
PLAYORDER=
